# xmcd
#
# Track frame offsets:
#   150
#   16301
#   26455
#   37545
#   52050
#   67159
#   83236
#   99551
#   116042
#   132105
#   146242
#   161282
#   174964
#   190100
#   204339
#   221414
#   237089
#   252690
#   270569
#   287253
#   298324
#
# Disc length: 4131 seconds
#
# Revision: 0
# Processed by: cddbd v1.5.2PL0 Copyright (c) Steve Scherf et al.
# Submitted via: uFREEDB ActiveX Control 1.5
#
DISCID=2d102115
DTITLE=ney - koxixua
DYEAR=1995
DGENRE=Alternative
TTITLE0=a
TTITLE1=b
TTITLE2=c
TTITLE3=d
TTITLE4=e
TTITLE5=f
TTITLE6=g
TTITLE7=h
TTITLE8=i
TTITLE9=j
TTITLE10=k
TTITLE11=l
TTITLE12=m
TTITLE13=n
TTITLE14=o
TTITLE15=p
TTITLE16=q
TTITLE17=q
TTITLE18=r
TTITLE19=s
TTITLE20=t
EXTD=mato grosso
EXTT0=
EXTT1=
EXTT2=
EXTT3=
EXTT4=
EXTT5=
EXTT6=
EXTT7=
EXTT8=
EXTT9=
EXTT10=
EXTT11=
EXTT12=
EXTT13=
EXTT14=
EXTT15=
EXTT16=
EXTT17=
EXTT18=
EXTT19=
EXTT20=
PLAYORDER=
